<svg xmlns="http://www.w3.org/2000/svg" viewBox="0 0 511.999 511.999"><path d="M245.167 11.115C238.001 3.948 228.473 0 218.337 0c-7.733 0-15.115 2.299-21.362 6.572C190.727 2.298 183.346 0 175.613 0c-10.135 0-19.664 3.948-26.83 11.114-7.168 7.166-11.115 16.694-11.115 26.831 0 10.135 3.947 19.665 11.115 26.832l42.724 42.721c1.51 1.51 3.49 2.265 5.469 2.265s3.959-.755 5.47-2.266l42.721-42.722c14.79-14.796 14.789-38.868 0-53.66zm-10.941 42.723l-37.249 37.251-37.254-37.251c-4.245-4.245-6.583-9.889-6.583-15.892s2.336-11.647 6.582-15.892c4.244-4.245 9.888-6.583 15.891-6.583s11.647 2.338 15.894 6.584a7.736 7.736 0 0 0 10.939-.001c4.244-4.245 9.888-6.583 15.891-6.583s11.645 2.338 15.889 6.583c8.761 8.762 8.76 23.021 0 31.784zM316.629 95.091a22.683 22.683 0 0 0-16.152-6.692 22.72 22.72 0 0 0-10.679 2.639 22.738 22.738 0 0 0-10.682-2.639 22.687 22.687 0 0 0-16.15 6.69 22.688 22.688 0 0 0-6.69 16.15 22.688 22.688 0 0 0 6.69 16.151l21.365 21.362a7.736 7.736 0 0 0 10.939-.001l21.359-21.362c8.903-8.906 8.903-23.396 0-32.298zm-10.943 21.362l-15.887 15.89-15.894-15.891c-1.392-1.392-2.158-3.243-2.158-5.212s.766-3.82 2.159-5.213a7.32 7.32 0 0 1 5.209-2.158c1.97 0 3.822.768 5.215 2.161a7.737 7.737 0 0 0 5.469 2.265h.003a7.737 7.737 0 0 0 5.469-2.268 7.309 7.309 0 0 1 5.205-2.157c1.968 0 3.818.767 5.21 2.16 2.874 2.873 2.872 7.548 0 10.423z"/><path d="M441.968 124.589c-1.918 0-47.237.274-71.102 24.14l-47.957 47.957L93.776 139.41c-.055-.014-.112-.02-.167-.033a7.498 7.498 0 0 0-1.177-.172 7.716 7.716 0 0 0-.372-.018 9.408 9.408 0 0 0-.75.021c-.129.01-.258.025-.387.041-.114.015-.228.029-.339.049a8.07 8.07 0 0 0-.432.089c-.092.022-.183.042-.274.067a7.391 7.391 0 0 0-.48.149c-.07.024-.141.047-.211.074a8.047 8.047 0 0 0-.501.21c-.059.027-.118.053-.176.082a7.347 7.347 0 0 0-.479.257c-.062.036-.125.072-.185.109a8.187 8.187 0 0 0-.983.719 8.307 8.307 0 0 0-.278.252c-.05.047-.104.089-.153.138l-21.876 21.874c-.037.037-.068.078-.104.115a7.906 7.906 0 0 0-.54.625c-.035.045-.074.086-.108.132-.037.05-.068.104-.104.156a7.637 7.637 0 0 0-1.137 2.425 7.56 7.56 0 0 0-.264 2.22 8.137 8.137 0 0 0 .106 1.095c.022.134.049.267.08.4a6.204 6.204 0 0 0 .199.719 7.725 7.725 0 0 0 .788 1.684c.063.101.129.199.196.298a9.134 9.134 0 0 0 .464.604c.096.112.194.222.297.329.043.045.081.094.125.138.04.04.085.074.125.113a8.528 8.528 0 0 0 .624.537c.042.032.08.069.123.101l160.517 118.64-77.787 77.787-39.219-13.077c-.077-.026-.154-.041-.231-.064-.144-.043-.289-.087-.436-.121-.126-.03-.252-.052-.379-.076-.117-.022-.232-.044-.349-.06a8.264 8.264 0 0 0-.439-.045c-.101-.008-.2-.017-.301-.021a7.873 7.873 0 0 0-.461-.002c-.097.002-.192.003-.289.008a7.655 7.655 0 0 0-.454.042c-.1.012-.199.023-.298.038a7.164 7.164 0 0 0-.437.084c-.102.022-.202.043-.302.068-.147.038-.29.083-.433.129-.096.031-.191.06-.286.095-.153.056-.304.12-.453.186-.081.035-.16.068-.24.106-.17.082-.334.172-.499.266-.045.026-.093.046-.138.074l-.101.06-.038.023-36.257 21.754-.055.033-.013.008c-.02.012-.036.026-.056.038a7.877 7.877 0 0 0-.578.388c-.06.044-.115.094-.173.14-.14.11-.279.22-.411.34-.09.081-.171.168-.257.252-.092.092-.186.181-.274.278-.115.127-.22.26-.325.393-.05.064-.105.124-.153.19a7.62 7.62 0 0 0-.387.576c-.012.02-.026.037-.038.057l-.003.006a7.711 7.711 0 0 0-.655 1.388 7.017 7.017 0 0 0-.188.626c-.008.03-.019.058-.026.088a7.86 7.86 0 0 0-.117.581c-.009.052-.022.103-.029.156-.025.164-.037.329-.051.494-.007.087-.019.174-.023.261-.006.125-.003.249-.002.374-.001.13-.005.259.002.389.004.083.015.165.022.248.014.169.027.337.051.506l.027.138c.033.2.07.401.12.599l.008.028c.092.359.216.713.361 1.063.043.104.081.21.128.312.013.026.029.052.041.078.101.208.208.413.326.612l.007.013c.009.015.02.027.029.041a7.543 7.543 0 0 0 .661.919c.147.177.302.347.467.512.06.061.119.125.181.184.212.199.434.389.672.565.076.056.157.104.235.157.135.093.266.189.409.274l64.433 38.662-7.582 7.582a7.735 7.735 0 0 0 5.47 13.205 7.712 7.712 0 0 0 5.47-2.266l7.582-7.582 38.621 64.365.033.055.008.013c.004.007.01.013.014.021.156.258.33.505.518.745.049.064.1.125.151.187.151.183.312.359.482.529.057.057.111.116.169.171.214.2.438.393.679.571.07.052.144.095.216.145.14.097.277.196.424.285.031.019.065.031.097.049.189.11.384.203.58.296.121.057.239.121.361.171.172.07.349.124.525.182.149.049.297.106.448.146.152.04.308.063.461.094.174.034.347.078.522.1.209.027.422.032.635.042.115.005.23.023.344.023l.007-.001.007.001c.115 0 .23-.018.344-.023.212-.01.425-.015.634-.042.176-.022.35-.065.525-.101.153-.03.307-.053.458-.092.153-.04.302-.098.453-.149.174-.057.348-.11.519-.18.125-.051.246-.116.37-.175.192-.091.384-.183.568-.291.034-.019.068-.032.102-.051.153-.092.296-.195.44-.296.065-.045.133-.084.196-.132.243-.18.468-.373.684-.576.056-.053.109-.11.163-.165.171-.172.334-.349.488-.535.05-.061.101-.122.149-.185.186-.239.361-.485.517-.743l.016-.024.009-.016.031-.051 21.837-36.399c.048-.08.086-.163.13-.244.066-.119.133-.238.192-.361.058-.12.11-.242.161-.365.045-.108.093-.215.133-.324a7.27 7.27 0 0 0 .133-.402c.033-.105.066-.209.095-.316.035-.135.064-.271.093-.407.023-.111.046-.223.064-.336.02-.129.035-.258.049-.388.013-.123.026-.247.034-.371.007-.12.009-.24.01-.36a7.5 7.5 0 0 0-.002-.396c-.005-.114-.015-.228-.024-.341a8.244 8.244 0 0 0-.041-.41c-.017-.119-.04-.237-.061-.355-.024-.128-.046-.255-.077-.383a7.073 7.073 0 0 0-.111-.396c-.025-.089-.044-.178-.074-.266l-13.078-39.22 222.674-222.674c.011-.012.024-.022.036-.033 23.865-23.865 24.139-69.183 24.139-71.101a7.733 7.733 0 0 0-7.734-7.735zM81.845 167.907l12.427-12.426 215.879 53.961-73.145 73.145-155.161-114.68zm332.803 24.551c-.008.009-.018.016-.027.025l-226.089 226.09c-.025.026-.046.054-.072.08a8.127 8.127 0 0 0-.305.337c-.074.085-.148.169-.218.256-.077.097-.147.198-.219.299a7.574 7.574 0 0 0-.235.338c-.051.079-.096.162-.144.243a8.258 8.258 0 0 0-.235.419c-.035.07-.065.143-.1.215a8.31 8.31 0 0 0-.205.465c-.031.08-.056.162-.085.243-.052.15-.107.3-.15.452-.03.108-.053.218-.08.327-.03.127-.064.254-.088.383-.025.138-.041.278-.059.419-.014.103-.03.204-.04.308-.013.154-.017.308-.022.463-.002.094-.008.187-.008.28.001.148.012.295.021.443.007.106.011.212.023.318.013.126.034.253.054.379.02.131.04.261.068.391.021.103.048.205.074.307.038.153.079.305.127.456.01.032.016.065.027.098l13.464 40.381-13.414 22.359-34.019-56.695 32.195-32.195A7.735 7.735 0 1 0 173.95 389.4l-32.194 32.194-56.695-34.019 22.359-13.415 40.381 13.465c.025.009.051.01.077.019.344.111.694.197 1.047.258.087.015.172.025.258.037.319.044.639.073.96.077.035.001.07.009.106.009.039 0 .078-.009.117-.009a7.83 7.83 0 0 0 .916-.072c.096-.013.191-.025.286-.041.329-.057.655-.133.976-.233.065-.021.128-.045.193-.068.292-.099.578-.216.859-.351.052-.025.107-.047.159-.074.303-.154.596-.331.88-.528.074-.051.146-.107.219-.161.222-.165.435-.342.642-.534.063-.059.131-.113.192-.174l.028-.025 226.089-226.089c13.984-13.985 39.058-17.996 51.976-19.146-1.134 12.898-5.122 37.901-19.133 51.938z"/><path d="M435.079 481.843a7.025 7.025 0 0 0-.085-.728 7.176 7.176 0 0 0-.086-.437c-.013-.056-.019-.112-.033-.169l-49.587-198.373a7.736 7.736 0 0 0-15.009 3.752l48.524 194.124-12.426 12.426-100.041-135.354a7.736 7.736 0 0 0-12.441 9.195l105.382 142.578c.026.036.058.067.086.103.12.156.248.307.382.456.071.079.139.159.212.235.025.026.046.053.071.078.111.111.229.209.346.312.074.066.145.138.222.201.216.177.439.341.668.491.063.041.13.076.194.115.177.109.357.214.542.308.084.042.169.079.254.118.172.08.346.155.522.221.09.034.18.064.271.095.178.059.358.111.538.157.091.023.181.047.273.067.191.041.384.073.577.1.082.012.163.027.245.035.267.029.535.045.803.046l.023.001.026-.002a7.697 7.697 0 0 0 1.028-.08c.082-.011.162-.021.244-.035a7.518 7.518 0 0 0 1.007-.24c.064-.02.128-.045.191-.067.324-.111.643-.241.953-.395.029-.015.057-.026.087-.04a7.67 7.67 0 0 0 .962-.597c.03-.022.063-.036.094-.058.044-.033.083-.07.126-.103.109-.084.216-.173.321-.264.103-.088.203-.178.3-.271.041-.039.085-.073.125-.113l21.874-21.874c.043-.044.081-.092.124-.136a7.532 7.532 0 0 0 .724-.889c.085-.119.164-.238.241-.36a9.524 9.524 0 0 0 .368-.661c.042-.086.082-.173.121-.261.061-.137.122-.275.174-.415.038-.099.071-.2.105-.3.044-.13.086-.26.122-.392.033-.119.06-.239.088-.359.026-.117.052-.233.072-.351a8.013 8.013 0 0 0 .113-1.157c.003-.111.005-.221.003-.332a7.742 7.742 0 0 0-.02-.401z"/></svg>